<svg width="96" height="138" viewBox="0 0 96 138" fill="none" xmlns="http://www.w3.org/2000/svg">
<path d="M11.87 88.8456C7.46996 84.4456 7.70329 80.0123 8.36996 78.3456C13.3699 74.5123 24.2699 67.3456 27.8699 69.3456C32.3699 71.8456 73.8699 93.3456 83.3699 98.8456C90.9699 103.246 94.8699 106.346 95.8699 107.346V137.346C94.2032 136.012 89.7699 132.746 85.3699 130.346C79.8699 127.346 52.8699 112.346 40.8699 106.346C28.8699 100.346 17.37 94.3456 11.87 88.8456Z" fill="url(#paint0_linear_2275_55)"/>
<g filter="url(#filter0_d_2275_55)">
<path d="M90 7C92.8 5.4 95.1667 3 96 2V29C95.3333 30 93.6 32.3 92 33.5C90 35 88.5 36 85 38C81.5 40 46.619 59.2078 41.5 62C36 65 24.8378 70.6641 22.5 72C19 74 12.5 77.5 10.5 79C9.06892 80.0733 8.16667 81.1667 8 81.5V54.5C8.66667 53.5 8.951 51.5368 11 50C13 48.5 16.7222 46.2148 19 45C41.5 33 87.2 8.6 90 7Z" fill="url(#paint1_linear_2275_55)"/>
</g>
<path d="M22.0747 85.9207L26.4531 88.2385L27.0164 87.1745L23.7726 85.4573L24.7869 83.5412L27.4658 84.9593L28.029 83.8953L25.3502 82.4772L26.2349 80.8059L29.4787 82.523L30.0419 81.459L25.6635 79.1412L22.0747 85.9207Z" fill="#111111"/>
<path d="M27.6768 88.8862L31.8057 91.0719L32.369 90.0079L29.3747 88.4229L32.4002 82.7074L31.2656 82.1068L27.6768 88.8862Z" fill="#111111"/>
<path d="M32.6033 91.4941L36.9817 93.8119L37.5449 92.7479L34.3011 91.0307L35.3155 89.1146L37.9943 90.5327L38.5575 89.4687L35.8787 88.0506L36.7634 86.3793L40.0072 88.0964L40.5705 87.0324L36.1921 84.7146L32.6033 91.4941Z" fill="#111111"/>
<path d="M37.6404 94.1606L38.808 94.7786L40.047 93.554L42.7211 94.9696L42.4096 96.6852L43.5772 97.3033L45.0285 89.3923L43.3666 88.5126L37.6404 94.1606ZM40.942 92.6717L43.6051 90.0432L42.9429 93.7308L40.942 92.6717Z" fill="#111111"/>
<path d="M61.3704 106.722L62.5333 107.338L63.1489 106.175L61.986 105.559L61.3704 106.722Z" fill="#111111"/>
<path d="M66.8342 109.795C68.3925 110.62 69.9096 110.351 71.0314 109.245L70.0543 108.324C69.3246 109.064 68.4121 109.263 67.3999 108.727C66.0346 108.004 65.8656 106.661 66.6507 105.178C67.4404 103.697 68.6415 103.079 70.0068 103.802C71.019 104.338 71.3682 105.204 71.1659 106.224L72.4769 106.514C72.7607 104.965 72.1309 103.558 70.5725 102.733C68.5434 101.659 66.5736 102.443 65.4596 104.547C64.3456 106.652 64.8051 108.721 66.8342 109.795Z" fill="#111111"/>
<path d="M73.7858 113.475C75.8197 114.552 77.7894 113.768 78.9035 111.664C80.0175 109.56 79.558 107.49 77.5241 106.413C75.495 105.339 73.5252 106.123 72.4112 108.227C71.2972 110.332 71.7567 112.401 73.7858 113.475ZM73.6117 108.863C74.4015 107.382 75.6006 106.745 76.9584 107.482C78.3137 108.224 78.488 109.545 77.7029 111.028C76.9179 112.511 75.7094 113.143 74.3515 112.407C72.9962 111.665 72.822 110.343 73.6117 108.863Z" fill="#111111"/>
<path d="M78.0462 115.55L79.1102 116.113L81.4105 111.768L81.1864 117.212L81.6384 117.451L86.0196 114.207L83.7193 118.553L84.7786 119.114L88.3674 112.334L87.3457 111.793L82.4591 115.354L82.6566 109.311L81.635 108.77L78.0462 115.55Z" fill="#111111"/>
<path d="M45.6745 98.4133L46.8091 99.0139L49.8346 93.2984L52.0285 94.4598L52.5918 93.3958L47.0693 90.4724L46.5061 91.5364L48.7 92.6978L45.6745 98.4133Z" fill="url(#paint2_linear_2275_55)"/>
<path d="M49.7558 100.574L54.1342 102.891L54.6974 101.827L51.4536 100.11L52.4679 98.1942L55.1468 99.6123L55.71 98.5483L53.0312 97.1302L53.9159 95.4589L57.1597 97.176L57.7229 96.112L53.3445 93.7943L49.7558 100.574Z" fill="url(#paint3_linear_2275_55)"/>
<path d="M55.2637 103.489L56.3983 104.09L58.0731 100.926L59.2561 105.603L60.6967 106.365L59.414 101.262L64.0877 99.4813L62.6942 98.7436L58.3223 100.455L59.9871 97.3106L58.8525 96.7099L55.2637 103.489Z" fill="url(#paint4_linear_2275_55)"/>
<path d="M22 51.2949C21.6272 51.2949 21.3269 50.9926 21.3269 50.6218V48.6731C21.3269 48.3003 21.6292 48 22 48C22.3708 48 22.6731 48.3023 22.6731 48.6731V50.6218C22.6731 50.9946 22.3728 51.2949 22 51.2949ZM22 66C21.6272 66 21.3269 65.6977 21.3269 65.3269V63.3782C21.3269 63.0054 21.6292 62.7051 22 62.7051C22.3708 62.7051 22.6731 63.0074 22.6731 63.3782V65.3269C22.6731 65.6977 22.3728 66 22 66ZM26.5101 53.163C26.3368 53.163 26.1655 53.0965 26.0345 52.9655C25.7705 52.7015 25.7705 52.2763 26.0345 52.0123L27.4129 50.6339C27.6769 50.3699 28.1021 50.3699 28.3661 50.6339C28.6301 50.8979 28.6301 51.3231 28.3661 51.5871L26.9877 52.9655C26.8547 53.0985 26.6834 53.163 26.5101 53.163ZM16.1115 63.5616C15.9382 63.5616 15.7669 63.4951 15.6359 63.3641C15.3719 63.1001 15.3719 62.6749 15.6359 62.4109L17.0123 61.0345C17.2763 60.7705 17.7015 60.7705 17.9655 61.0345C18.2295 61.2985 18.2295 61.7237 17.9655 61.9877L16.5891 63.3641C16.4581 63.4951 16.2848 63.5616 16.1115 63.5616ZM30.3269 57.6731H28.3782C28.0054 57.6731 27.7051 57.3708 27.7051 57C27.7051 56.6272 28.0074 56.3269 28.3782 56.3269H30.3269C30.6997 56.3269 31 56.6292 31 57C31 57.3728 30.6977 57.6731 30.3269 57.6731ZM15.6218 57.6731H13.6731C13.3003 57.6731 13 57.3708 13 57C13 56.6272 13.3023 56.3269 13.6731 56.3269H15.6218C15.9946 56.3269 16.2949 56.6292 16.2949 57C16.2949 57.3728 15.9946 57.6731 15.6218 57.6731Z" fill="#369FEB"/>
<path d="M27.9488 63.6316C27.7737 63.6316 27.6006 63.5644 27.4682 63.432L26.0752 62.0412C25.8084 61.7744 25.8084 61.3448 26.0752 61.078C26.342 60.8113 26.7717 60.8113 27.0385 61.078L28.4315 62.4688C28.6983 62.7356 28.6983 63.1653 28.4315 63.432C28.2971 63.5644 28.1219 63.6316 27.9488 63.6316ZM17.4401 53.1241C17.265 53.1241 17.0919 53.0569 16.9595 52.9245L15.5685 51.5317C15.3017 51.2649 15.3017 50.8353 15.5685 50.5685C15.8353 50.3017 16.265 50.3017 16.5318 50.5685L17.9228 51.9613C18.1896 52.2281 18.1896 52.6578 17.9228 52.9245C17.7884 53.0589 17.6153 53.1241 17.4401 53.1241Z" fill="#369FEB"/>
<path d="M22.582 55.1756C22.5106 55.0032 22.4739 54.8184 22.4739 54.6318C22.4739 54.4883 22.4956 54.3458 22.5381 54.2093C22.3612 54.1752 22.181 54.1579 22 54.1579C21.6268 54.1579 21.2572 54.2314 20.9124 54.3742C20.5676 54.5171 20.2542 54.7264 19.9903 54.9903C19.7264 55.2542 19.5171 55.5676 19.3742 55.9124C19.2314 56.2572 19.1579 56.6268 19.1579 57C19.1579 57.3732 19.2314 57.7428 19.3742 58.0876C19.5171 58.4324 19.7264 58.7458 19.9903 59.0097C20.2542 59.2736 20.5676 59.4829 20.9124 59.6258C21.2572 59.7686 21.6268 59.8421 22 59.8421C22.3732 59.8421 22.7428 59.7686 23.0876 59.6258C23.4324 59.4829 23.7458 59.2736 24.0097 59.0097C24.2736 58.7458 24.4829 58.4324 24.6258 58.0876C24.7686 57.7428 24.8421 57.3732 24.8421 57C24.8421 56.6268 24.7686 56.2572 24.6258 55.9124C24.6189 55.8958 24.6119 55.8793 24.6047 55.8629C24.5513 55.8936 24.4959 55.921 24.4387 55.9446C24.2663 56.0161 24.0815 56.0528 23.8949 56.0528C23.7083 56.0528 23.5235 56.0161 23.3511 55.9446C23.1787 55.8732 23.022 55.7686 22.8901 55.6366C22.7581 55.5046 22.6535 55.348 22.582 55.1756Z" fill="#369FEB"/>
<path d="M22 61.7368C19.3889 61.7368 17.2632 59.613 17.2632 57C17.2632 54.387 19.387 52.2632 22 52.2632C24.613 52.2632 26.7368 54.387 26.7368 57C26.7368 59.613 24.6111 61.7368 22 61.7368ZM22 53.2921C19.9558 53.2921 18.2921 54.9558 18.2921 57C18.2921 59.0442 19.9558 60.7079 22 60.7079C24.0442 60.7079 25.7079 59.0442 25.7079 57C25.7079 54.9558 24.0462 53.2921 22 53.2921Z" fill="#369FEB"/>
<path d="M37.1705 54.5304L33.0562 46.8337L38.1523 44.1096L38.8694 45.4513L35.4007 47.3055L36.3811 49.1395L39.5116 47.4661L40.2288 48.8077L37.0982 50.4811L38.7978 53.6605L37.1705 54.5304Z" fill="#111111"/>
<path d="M40.8741 42.6547L44.9883 50.3513L43.3611 51.2212L39.2468 43.5245L40.8741 42.6547Z" fill="#111111"/>
<path d="M48.6506 38.4977L52.7648 46.1943L51.3593 46.9457L45.4213 43.8914L45.3649 43.9216L47.9544 48.7658L46.3272 49.6356L42.2129 41.939L43.641 41.1756L49.5507 44.2402L49.6183 44.204L47.0308 39.3636L48.6506 38.4977Z" fill="#111111"/>
<path d="M56.8377 44.0172L54.1093 45.4757L49.995 37.779L52.746 36.3085C53.5201 35.8947 54.2689 35.6925 54.9924 35.702C55.7145 35.709 56.3792 35.919 56.9866 36.332C57.5964 36.7437 58.1149 37.3492 58.5422 38.1484C58.9707 38.9501 59.1875 39.7202 59.1923 40.4585C59.1997 41.1954 59.0039 41.8686 58.6049 42.4781C58.2085 43.0863 57.6194 43.5993 56.8377 44.0172ZM54.9913 43.2115L56.0247 42.6591C56.5058 42.4019 56.8649 42.1005 57.102 41.7546C57.3403 41.405 57.4457 41.0056 57.4182 40.5564C57.3919 40.1034 57.2254 39.59 56.9187 39.0163C56.6147 38.4475 56.2823 38.0276 55.9216 37.7566C55.5633 37.4842 55.1746 37.3506 54.7553 37.3556C54.336 37.3607 53.8859 37.4918 53.4048 37.749L52.3676 38.3034L54.9913 43.2115Z" fill="#111111"/>
<path d="M64.8978 29.8126L66.5251 28.9428L69.197 33.9411C69.497 34.5023 69.6254 35.065 69.5824 35.6292C69.5418 36.1921 69.3452 36.7192 68.9925 37.2105C68.6386 37.6993 68.1434 38.1138 67.507 38.454C66.8681 38.7955 66.2471 38.9776 65.644 39.0004C65.0396 39.0207 64.4921 38.8914 64.0015 38.6125C63.511 38.3335 63.1157 37.9134 62.8157 37.3522L60.1438 32.3539L61.7711 31.4841L64.3686 36.3433C64.5253 36.6365 64.7285 36.8629 64.9781 37.0226C65.2303 37.1809 65.509 37.2623 65.8141 37.2667C66.1193 37.2711 66.4284 37.1895 66.7416 37.0221C67.0573 36.8534 67.2968 36.6416 67.4602 36.3868C67.626 36.1306 67.7119 35.8543 67.7178 35.558C67.7262 35.2604 67.6521 34.965 67.4954 34.6719L64.8978 29.8126Z" fill="#111111"/>
<path d="M73.2225 28.2087C73.0303 27.9216 72.7754 27.7551 72.4577 27.7091C72.14 27.6631 71.7857 27.7446 71.3948 27.9535C71.1293 28.0955 70.9251 28.2529 70.7824 28.4259C70.6384 28.5963 70.5523 28.7728 70.5242 28.9553C70.4987 29.1365 70.5301 29.3097 70.6185 29.4751C70.6871 29.6155 70.7802 29.7204 70.8978 29.7896C71.0178 29.8575 71.1543 29.8989 71.3072 29.9138C71.4588 29.9262 71.6232 29.9205 71.8005 29.8966C71.9765 29.8702 72.1584 29.8309 72.3464 29.7787L73.1263 29.5745C73.5022 29.4702 73.8639 29.4056 74.2115 29.3809C74.559 29.3562 74.8844 29.3804 75.1876 29.4534C75.4908 29.5265 75.7651 29.6569 76.0105 29.8447C76.2583 30.0311 76.4692 30.284 76.6431 30.6034C76.8924 31.0757 76.9904 31.5484 76.9372 32.0214C76.8852 32.4905 76.6871 32.9395 76.3429 33.3683C75.9999 33.7932 75.5152 34.1731 74.8889 34.5079C74.2675 34.8401 73.6755 35.0342 73.1127 35.0902C72.5524 35.1449 72.0435 35.0545 71.5859 34.8192C71.1294 34.58 70.7469 34.1869 70.4384 33.6399L72.0131 32.7981C72.1686 33.0468 72.3577 33.2228 72.5804 33.326C72.8042 33.4254 73.0498 33.46 73.3172 33.4298C73.5857 33.3958 73.8602 33.3038 74.1409 33.1538C74.4164 33.0065 74.6343 32.8385 74.7944 32.6498C74.957 32.4598 75.0565 32.2633 75.0929 32.0602C75.1293 31.8571 75.0979 31.6629 74.9988 31.4775C74.9064 31.3046 74.7774 31.1868 74.6117 31.1239C74.4485 31.0597 74.2471 31.0386 74.0075 31.0603C73.7704 31.0808 73.4935 31.1322 73.1767 31.2145L72.2261 31.4521C71.4929 31.6411 70.8486 31.6682 70.2933 31.5334C69.738 31.3985 69.3096 31.0461 69.0081 30.476C68.7565 30.0114 68.6629 29.5379 68.7273 29.0557C68.7942 28.5722 68.9959 28.1149 69.3323 27.6838C69.6688 27.2526 70.1177 26.8871 70.6789 26.5871C71.2501 26.2817 71.8009 26.1129 72.3313 26.0806C72.8642 26.0471 73.3427 26.1408 73.7669 26.3618C74.1911 26.5828 74.5295 26.9205 74.7821 27.375L73.2225 28.2087Z" fill="#111111"/>
<defs>
<filter id="filter0_d_2275_55" x="0" y="0" width="104" height="95.5" filterUnits="userSpaceOnUse" color-interpolation-filters="sRGB">
<feFlood flood-opacity="0" result="BackgroundImageFix"/>
<feColorMatrix in="SourceAlpha" type="matrix" values="0 0 0 0 0 0 0 0 0 0 0 0 0 0 0 0 0 0 127 0" result="hardAlpha"/>
<feOffset dy="6"/>
<feGaussianBlur stdDeviation="4"/>
<feComposite in2="hardAlpha" operator="out"/>
<feColorMatrix type="matrix" values="0 0 0 0 0 0 0 0 0 0 0 0 0 0 0 0 0 0 0.25 0"/>
<feBlend mode="normal" in2="BackgroundImageFix" result="effect1_dropShadow_2275_55"/>
<feBlend mode="normal" in="SourceGraphic" in2="effect1_dropShadow_2275_55" result="shape"/>
</filter>
<linearGradient id="paint0_linear_2275_55" x1="8" y1="76" x2="96" y2="122.5" gradientUnits="userSpaceOnUse">
<stop stop-color="#7E7E7E"/>
<stop offset="0.138292" stop-color="#CDCDCD"/>
<stop offset="0.290375" stop-color="#F9F9F9"/>
<stop offset="0.836085" stop-color="white"/>
<stop offset="1" stop-color="#B5B5B5"/>
</linearGradient>
<linearGradient id="paint1_linear_2275_55" x1="8" y1="68" x2="98.5" y2="18" gradientUnits="userSpaceOnUse">
<stop stop-color="#CECECE"/>
<stop offset="0.107358" stop-color="#F5F5F5"/>
<stop offset="0.28125" stop-color="#F8F8F8"/>
<stop offset="0.75" stop-color="#F9F9F9"/>
<stop offset="0.875" stop-color="#F4F4F4"/>
<stop offset="1" stop-color="#CACACA"/>
</linearGradient>
<linearGradient id="paint2_linear_2275_55" x1="55.7445" y1="95.2053" x2="52.4215" y2="101.483" gradientUnits="userSpaceOnUse">
<stop stop-color="#369FEB"/>
<stop offset="1" stop-color="#4F71B9"/>
</linearGradient>
<linearGradient id="paint3_linear_2275_55" x1="55.7445" y1="95.2053" x2="52.4215" y2="101.483" gradientUnits="userSpaceOnUse">
<stop stop-color="#369FEB"/>
<stop offset="1" stop-color="#4F71B9"/>
</linearGradient>
<linearGradient id="paint4_linear_2275_55" x1="55.7445" y1="95.2053" x2="52.4215" y2="101.483" gradientUnits="userSpaceOnUse">
<stop stop-color="#369FEB"/>
<stop offset="1" stop-color="#4F71B9"/>
</linearGradient>
</defs>
</svg>
