<svg width="57" height="46" viewBox="0 0 57 46" fill="none" xmlns="http://www.w3.org/2000/svg">
<path fill-rule="evenodd" clip-rule="evenodd" d="M16 3C16 1.34315 17.3431 0 19 0H47C52.5228 0 57 4.47715 57 10V35.5C57 41.0228 52.5228 45.5 47 45.5H10C4.47715 45.5 0 41.0228 0 35.5V8.99991C0 6.60496 0.872098 4.33538 3.01732 3.2779C4.88502 2.35724 6.93914 2.79275 8.28208 3.83371L28.988 17.8677L41.3004 9.40287C42.6657 8.46422 44.5335 8.8101 45.4721 10.1754C46.4108 11.5407 46.0649 13.4085 44.6996 14.3471L29.012 25.1323L6 9.53526V35.5C6 37.7091 7.79086 39.5 10 39.5H47C49.2091 39.5 51 37.7091 51 35.5V10C51 7.79086 49.2091 6 47 6H19C17.3431 6 16 4.65685 16 3Z" fill="white"/>
</svg>
